<?xml version="1.0" encoding="iso-8859-1"?>
<!-- Uploaded to: SVG Repo, www.svgrepo.com, Generator: SVG Repo Mixer Tools -->
<!DOCTYPE svg PUBLIC "-//W3C//DTD SVG 1.1//EN" "http://www.w3.org/Graphics/SVG/1.1/DTD/svg11.dtd">
<svg fill="#000000" height="800px" width="800px" version="1.1" id="Capa_1" xmlns="http://www.w3.org/2000/svg" xmlns:xlink="http://www.w3.org/1999/xlink" 
	 viewBox="0 0 476.801 476.801" xml:space="preserve">
<path d="M382.4,0c-4.418,0-8,3.582-8,8v20.801h-25.143V8c0-4.418-3.582-8-8-8s-8,3.582-8,8v20.801h-25.144V8c0-4.418-3.582-8-8-8
	s-8,3.582-8,8v20.801h-25.143V8c0-4.418-3.582-8-8-8s-8,3.582-8,8v20.801h-25.143V8c0-4.418-3.582-8-8-8s-8,3.582-8,8v20.801
	h-25.143V8c0-4.418-3.582-8-8-8s-8,3.582-8,8v20.801h-25.144V8c0-4.418-3.582-8-8-8s-8,3.582-8,8v20.801H102.4V8
	c0-4.418-3.582-8-8-8s-8,3.582-8,8v28.801v0.021V80v28.801V152v28.801V224v28.801V296v28.801V368v28.801V440v28.801
	c0,4.418,3.582,8,8,8s8-3.582,8-8V448h25.143v20.801c0,4.418,3.582,8,8,8s8-3.582,8-8V448h25.144v20.801c0,4.418,3.582,8,8,8
	s8-3.582,8-8V448h25.143v20.801c0,4.418,3.582,8,8,8s8-3.582,8-8V448h25.143v20.801c0,4.418,3.582,8,8,8s8-3.582,8-8V448h25.143
	v20.801c0,4.418,3.582,8,8,8s8-3.582,8-8V448h25.144v20.801c0,4.418,3.582,8,8,8s8-3.582,8-8V448H374.4v20.801c0,4.418,3.582,8,8,8
	s8-3.582,8-8V440v-43.199V368v-43.199V296v-43.199V224v-43.199V152v-43.199V80V36.822v-0.021V8C390.4,3.582,386.818,0,382.4,0z
	 M374.4,316.801h-272V304h272V316.801z M102.4,288v-27.199h272V288H102.4z M374.4,244.801h-272V232h272V244.801z M102.4,216v-27.199
	h272V216H102.4z M374.4,172.801h-272V160h272V172.801z M102.4,144v-27.199h272V144H102.4z M102.4,332.801h272V360h-272V332.801z
	 M102.4,376h272v12.801h-272V376z M374.4,72h-20.8c-4.418,0-8,3.582-8,8s3.582,8,8,8h20.8v12.801h-272V88h200c4.418,0,8-3.582,8-8
	s-3.582-8-8-8h-200V44.801h32.717c0.142,0.007,0.282,0.021,0.425,0.021s0.284-0.014,0.425-0.021h40.293
	c0.142,0.007,0.282,0.021,0.425,0.021s0.284-0.014,0.425-0.021h40.292c0.142,0.007,0.282,0.021,0.425,0.021s0.284-0.014,0.425-0.021
	h40.292c0.142,0.007,0.282,0.021,0.425,0.021s0.284-0.014,0.425-0.021h40.292c0.142,0.007,0.282,0.021,0.425,0.021
	s0.284-0.014,0.425-0.021h40.293c0.142,0.007,0.282,0.021,0.425,0.021s0.284-0.014,0.425-0.021H374.4V72z M102.4,404.801h272V432
	h-272V404.801z"/>
</svg>